PathFileType	4	(X/Y/Z)	Patient4_TMGait_0pt5_01_left_05.trc.trc
DataRate	CameraRate	NumFrames	NumMarkers	Units	OrigDataRate	OrigDataStartFrame	OrigNumFrames
71.065989847716	71.065989847716	6	33	mm	71.065989847716	71	       141
Frame#	Time	L.ASIS			Sacral			L.Shoulder			Chest			R.Shoulder			Neck			R.ASIS			R.Thigh.Superior			R.Thigh.Lateral			R.Thigh.Inferior			R.Patella			L.Thigh.Superior			L.Thigh.Lateral			L.Thigh.Inferior			L.Patella			L.Shank.Superior			L.Shank.Lateral			L.Shank.Inferior			R.Shank.Superior			R.Shank.Lateral			R.Shank.Inferior			R.Heel			R.Midfoot.Superior			R.Midfoot.Lateral			R.Toe			L.Heel			L.Midfoot.Lateral			L.Midfoot.Superior			L.Toe			L.Elbow			L.Wrist			R.Elbow			R.Wrist			
		X1	Y1	Z1	X2	Y2	Z2	X3	Y3	Z3	X4	Y4	Z4	X5	Y5	Z5	X6	Y6	Z6	X7	Y7	Z7	X8	Y8	Z8	X9	Y9	Z9	X10	Y10	Z10	X11	Y11	Z11	X12	Y12	Z12	X13	Y13	Z13	X14	Y14	Z14	X15	Y15	Z15	X16	Y16	Z16	X17	Y17	Z17	X18	Y18	Z18	X19	Y19	Z19	X20	Y20	Z20	X21	Y21	Z21	X22	Y22	Z22	X23	Y23	Z23	X24	Y24	Z24	X25	Y25	Z25	X26	Y26	Z26	X27	Y27	Z27	X28	Y28	Z28	X29	Y29	Z29	X30	Y30	Z30	X31	Y31	Z31	X32	Y32	Z32	X33	Y33	Z33	

71	7.555000000000	734.867778345397	960.180253334452	317.633749215742	508.797111410160	1001.723847872267	457.347191541051	701.070323522368	1436.724592550439	300.237107443858	783.993476673152	1361.530708702868	470.367201464253	681.577938738690	1431.973830984116	636.712239406319	686.906277237791	1493.979719778723	451.887375752380	726.903973553127	940.302603293617	592.928564468438	798.303697893345	759.108675362525	563.207368755777	747.109962186658	641.392145589591	632.179353852975	830.659575549510	599.891822537018	548.587708013180	861.656750711140	519.347570499212	560.075011480514	747.000644129190	733.725983462782	351.766967895539	641.789403475970	634.457680220737	282.018536162479	697.362947478100	544.967694616706	354.862538828774	682.803259782027	477.716043663417	365.836892487916	654.002775642735	409.548631679410	355.272804823899	561.765545408102	301.370921739258	298.855124477345	594.634231513592	189.173740043559	377.020507066983	850.924043687644	432.772641717101	570.170577016129	808.605366444784	316.740136915148	635.900969117192	877.892114435417	234.146545377606	579.044490487120	789.989350295878	44.097092664643	553.317933956322	952.448992006261	123.250707851269	588.115715427910	877.589402051443	43.910392643632	623.448603696983	1078.513924905279	89.163236312500	607.318909886590	452.660884670646	38.054404149821	409.321808160386	531.003120598551	35.335842826405	333.168731583658	613.286345677143	95.320280223983	365.101988383583	742.391434109336	42.202565141962	343.517844229849	725.949749493880	1094.926171138332	156.133700265485	962.955899697301	999.814561827921	191.932215598265	536.747544548681	1114.750225083704	726.899328950621	510.836034508180	854.998151554282	733.913831350844	
72	7.569071428571	735.921609579591	959.048652264810	319.709542490345	509.694741285582	1000.448066318363	459.248543340579	701.181424617504	1435.767152056997	302.530923249652	784.090098147398	1360.563953124371	472.671214161302	681.293399555351	1430.715672643517	638.991899202354	686.643142213305	1492.875238849537	454.194463290070	727.662850005941	938.936100922044	595.039015458204	798.916406931651	757.668901763101	565.811398434930	746.371682814600	639.463683133043	633.613274849058	830.781380100874	598.522561942510	550.856217904961	860.671236580521	517.687941622875	561.495120873562	745.709918266745	732.055008083370	353.459959633734	639.295061313591	633.950329242040	283.304797798536	693.697007549599	543.809213649871	356.043072370559	678.356899574155	476.604780657285	366.902019625478	649.144396190682	408.763154592603	356.138525629582	556.083903851055	301.349055634724	299.495518071717	588.126095863983	188.783399402359	377.449715334772	849.743668486153	430.575089674480	571.314941685830	806.523741303569	314.942943187042	636.711343833880	875.050952043338	232.078522303811	579.681520614966	785.672304682984	43.571884831736	553.922729612225	948.594231552789	120.802490308941	588.123595763976	873.259691797358	42.757728493644	623.914581465213	1074.285568038867	85.743811977214	607.118903461878	445.531159825500	37.953904984708	409.386180890102	523.859154628645	35.353080991286	333.244435159490	606.105027146404	95.332860640409	365.245088826989	735.194263312943	42.205217091181	343.551409566914	729.303028895050	1094.532582382066	158.187363896233	968.215329654554	1005.254060561287	195.034114876833	539.643071921012	1111.756307241366	728.972874612513	519.062925004852	851.484987681696	735.970796818524	
73	7.583142857143	737.080968599272	957.884195254581	321.876377609326	510.776595972304	999.049179307383	461.416606356339	701.226283365143	1434.758884386311	305.076708448648	784.232083843119	1359.577994063023	475.180128590008	681.067652413189	1429.346284091694	641.515741089990	686.355578487355	1491.709627377015	456.777758963181	728.773176523691	937.508808130673	597.197526538681	800.306869108983	756.508142347628	568.143490616841	746.503967059059	637.654304140652	634.652066036479	831.905435574349	597.402501596614	552.859624031651	860.508546423476	515.809286788902	562.766501658133	744.703800512389	730.342559486909	355.103631940683	637.034813303973	633.347118614641	284.791932248281	690.465732404147	542.579329447575	357.331787992016	674.382950490340	475.308837024815	368.149737183734	644.653813205228	407.836068960577	357.171315544597	550.592995382093	301.327115528612	300.269823859351	581.682830298981	188.321073869282	377.950415536276	848.721126217939	427.980973313999	572.228267767745	803.593750353159	313.108504509612	637.232350889091	870.599273167416	229.438080829780	580.037917377190	778.115075350774	43.360290499941	554.296680811222	941.993311088497	117.554160444283	587.974699623351	865.557011490405	41.564253067562	624.333978361568	1067.041331840248	80.651716349830	607.087096774868	438.380800368509	37.790791532030	409.476283118790	516.710423985746	35.342695293062	333.351421908469	598.909927648888	95.347210423918	365.409721965202	728.018687995776	42.191456941617	343.560427335449	732.341919081356	1094.084739746776	160.428435583308	972.830444968415	1010.068715259664	198.307413593359	542.966897821997	1108.471068431315	731.319367977708	528.610708748413	847.733462705434	738.397914663866	
74	7.597214285714	738.317232536547	956.724100259213	324.113936214548	512.015958532172	997.578926448457	463.826303888875	701.220638494061	1433.738522919718	307.876646565966	784.438920380465	1358.594529730584	477.887117355791	680.941812186002	1427.887821729391	644.277144767964	686.083565314996	1490.521666758903	459.647261824529	730.214652954676	936.069905066253	599.383066584420	802.331404204445	755.532562163253	570.184814583751	747.344775533113	635.977581206926	635.351804701629	833.779581808186	596.453267406641	554.573474407976	860.974744557821	513.751239577982	563.859737275665	744.019680392658	728.633991361396	356.681543753011	635.070892935029	632.652352705712	286.486062538928	687.775582345036	541.288459656702	358.724973461696	671.024479009788	473.816891842687	369.559178995470	640.626364706994	406.758520974294	358.367724765992	545.354026009772	301.328441373130	301.186842436686	575.351822173882	187.796418240157	378.513931614685	847.846236852077	425.115538064038	572.916045306059	800.140866882624	311.228173309438	637.523620626919	865.056242623252	226.369465640604	580.122645870305	768.294722038456	43.281466685098	554.490801828712	933.463005763184	113.798003672549	587.660120859831	855.517277768615	40.344843096152	624.706155860629	1057.735610377212	74.503671131609	607.128195216407	431.217644195609	37.604417324838	409.592356382220	509.569268650262	35.311853500427	333.491333033656	591.734222069995	95.359070433138	365.585031282264	720.890004338293	42.145968395082	343.535434394181	735.041474725542	1093.590983833066	162.868102230425	976.791351054442	1014.176993125119	201.748721320376	546.658555501708	1104.990562288388	733.925808343357	539.329923935312	843.885496934544	741.204014474367	
75	7.611285714286	739.593567823260	955.617164025639	326.405158184721	513.376381781291	996.104547647925	466.446414392314	701.181743944029	1432.760911821517	310.921353537478	784.726310403276	1357.647833103988	480.775778663622	680.953753905848	1426.381824138557	647.260443817585	685.867619881252	1489.365031510686	462.800405549668	731.946458488367	934.685463505156	601.582888049195	804.803882821244	754.660790361753	571.939255293560	748.714867564297	634.460688587647	635.800040300095	836.110965768992	595.612585847584	555.978786687181	861.849555050767	511.584087139342	564.751188200713	743.694454838376	726.990505718461	358.195184092032	633.484881117883	631.878080990101	288.391403551743	685.752462495686	539.957625514778	360.219696466442	668.447434668598	472.130994575993	371.095768856940	637.173901089883	405.533828864541	359.714545120709	540.448301593913	301.393080024430	302.250253725970	569.200993317017	187.235877388998	379.122871249428	847.088091064489	422.137999774027	573.395911246394	796.479951858029	309.341947690048	637.652216118331	858.933838540777	223.078512131910	579.962353971087	757.212981238438	43.223281235104	554.554917716104	923.827847552965	109.879627478864	587.187400926065	844.192783522030	39.161363651501	625.025062365418	1047.311463536311	67.972405694733	607.160680632564	424.059509256385	37.473652064310	409.730110039631	502.454818418183	35.285522223860	333.661659658525	584.628673641494	95.366289797829	365.753717148792	713.834832653707	42.050101631114	343.470037972178	737.374894500685	1093.071802069756	165.521006772557	980.085613945789	1017.506993160876	205.354548737844	550.692439744703	1101.414106049966	736.778712193756	551.079974026983	840.090050200640	744.382158087748	
76	7.625357142857	740.865956143930	954.620950213166	328.737676355570	514.815054397760	994.703618340155	469.244219171560	701.126611068515	1431.893061540971	314.189021820821	785.103029253148	1356.783788705601	483.820815518387	681.132768435351	1424.889043099632	650.441417445659	685.743531141052	1488.304414243214	466.219141501929	733.910313941852	933.432590691884	603.794184517035	807.518940320603	753.839165277121	573.432570130831	750.435633865247	633.141410640542	636.104777023957	838.600427698436	594.841596494259	557.069692194021	862.909142503220	509.399984096761	565.431361953702	743.762391104399	725.486379210607	359.663374771401	632.375244614135	631.043897799424	290.507138251722	684.537789154711	538.618514809937	361.810539688521	666.832481335311	470.268903266010	372.709551444006	634.422616688594	404.179374528797	361.186153736505	535.977774329638	301.578277778988	303.455428674931	563.318589673512	186.685297683185	379.750431133987	846.395778843466	419.218004962212	573.697750355906	792.873168164884	307.522907928161	637.687480916589	852.674821377851	219.794179567558	579.600800720467	745.775662060647	43.132788199394	554.534178515268	913.826718439121	106.138205141163	586.583528846358	832.527739522980	38.093349862965	625.283569903849	1036.598310205605	61.685855520285	607.130483826612	416.936671372039	37.523230651603	409.879508375986	495.393135538251	35.312539177758	333.854909632157	577.660849816142	95.371612952263	365.892581628678	706.876550427337	41.883072289891	343.363113016176	739.313933732191	1092.560168298229	168.402319125561	982.697683792363	1020.000585928268	209.120391661950	555.075223199588	1097.842318204008	739.866240475021	563.738708591433	836.500440592188	747.911640666286	
